# xmcd
#
# Track frame offsets:
#	150
#	15361
#	33514
#	49129
#	67965
#	85004
#	101749
#	120700
#	139540
#	154827
#	170895
#	187594
#	206066
#	223291
#	238175
#	253914
#	269941
#	283830
#	298125
#	313596
#
# Disc length: 4433 seconds
#
# Revision: 1
# Processed by: cddbd v1.5.2PL0 Copyright (c) Steve Scherf et al.
# Submitted via: audiograbber 1.83.01
#
DISCID=39114f14
DTITLE=Various Artist - Nu Country Traxx 014
DYEAR=2000
DGENRE=Country
TTITLE0=Chad Brock - The Visit
TTITLE1=Tim Mcgraw - Some Things Never Change
TTITLE2=Martina Mcbride - There You Are
TTITLE3=Lee Greenwood - The Only Thing I Care About
TTITLE4=Wynonna - Without Your Love I'm Going Nowhere
TTITLE5=Clint Black - Love She Can't Live Without
TTITLE6=Dixie Chicks - Cold Day In July
TTITLE7=Billy Gilman - One Voice
TTITLE8=Jo Dee Messina - That's The Way
TTITLE9=Danni Leigh - I Don't Feel That Way Anymore
TTITLE10=Charlie Daniels Band - Wild Wild Young Men
TTITLE11=Tara Lyn Hart - That's When You Came Along
TTITLE12=Jennifer Day - What If It's Me
TTITLE13=Sawyer Brown - Perfect World
TTITLE14=Chalee Tennison - What I Tell Myself
TTITLE15=Patty Loveless - That's The Kind Of Mood I'm In
TTITLE16=Jessica Andrews - I Do Now
TTITLE17=River Road - Breathless
TTITLE18=Ronnie Milsap - Time, Love, Money
TTITLE19=Faith Hill With Tim Mcgraw - Let's Make Love
EXTD=
EXTT0=
EXTT1=
EXTT2=
EXTT3=
EXTT4=
EXTT5=
EXTT6=
EXTT7=
EXTT8=
EXTT9=
EXTT10=
EXTT11=
EXTT12=
EXTT13=
EXTT14=
EXTT15=
EXTT16=
EXTT17=
EXTT18=
EXTT19=
PLAYORDER=
